<?xml version="1.0"?>
<svg xmlns="http://www.w3.org/2000/svg" xmlns:xlink="http://www.w3.org/1999/xlink" version="1.1" viewBox="0 0 295.82 295.82" enable-background="new 0 0 295.82 295.82" width="512px" height="512px"><g><g>
    <path d="m273.2,95.785h-21.577l-46.287-66.124c-3.48-3.48-8.701-5.22-12.181-1.74-3.48,3.48-5.22,8.701-1.74,12.181l38.979,55.684h-164.965l38.979-55.684c3.48-3.48 1.74-8.701-1.74-12.181s-8.701-1.74-12.181,1.74l-46.288,66.124h-21.578c-12.181,0-22.621,10.441-22.621,22.622v24.362c0,12.181 10.441,22.621 22.621,22.621h13.156l9.466,67.865c3.48,20.882 22.621,36.543 43.503,36.543h118.328c22.621,0 40.023-15.661 43.503-36.543l9.466-67.865h13.156c12.181,0 22.621-10.441 22.621-22.621v-24.362c0.001-12.181-10.44-22.622-22.62-22.622zm-40.023,133.989c-1.74,12.181-13.921,22.621-26.102,22.621h-118.328c-13.921,0-24.362-10.441-26.102-22.621l-8.701-64.385h187.933l-8.7,64.385zm45.243-87.006c0,3.48-1.74,5.22-5.22,5.22h-250.578c-3.48,0-5.22-1.74-5.22-5.22v-24.362c0-3.48 1.74-5.22 5.22-5.22h250.578c3.48,0 5.22,1.74 5.22,5.22v24.362z" data-original="#000000" class="active-path" data-old_color="#000000" fill="#99C336"/>
  </g></g> </svg>
