<?xml version="1.0"?>
<svg xmlns="http://www.w3.org/2000/svg" xmlns:xlink="http://www.w3.org/1999/xlink" version="1.1" id="Capa_1" x="0px" y="0px" viewBox="0 0 512 512" style="enable-background:new 0 0 512 512;" xml:space="preserve" width="512px" height="512px"><g><g>
	<g>
		<path d="M504.078,1.775C499.2-0.836,493.282-0.549,488.68,2.52c-28.358,18.904-57.873,41.69-78.983,88.247    C368.241,52.533,313.452,31,256,31c-36.931,0-73.698,9.135-106,26.047V15c0-8.284-6.716-15-15-15s-15,6.716-15,15v106H90V15    c0-8.284-6.716-15-15-15S60,6.716,60,15v106H30V15c0-8.284-6.716-15-15-15S0,6.716,0,15c0,6.167,0,144.031,0,151    c0,19.555,12.541,36.228,30,42.42V467c0,24.813,20.187,45,45,45s45-20.187,45-45v-30.967C159.183,465.534,207.212,482,256,482    c63.171,0,123.503-27.188,166-73.035V467c0,24.813,20.187,45,45,45s45-20.187,45-45c0-5.098,0-444.998,0-452    C512,9.468,508.955,4.385,504.078,1.775z M150,91.666C181.098,71.846,218.432,61,256,61c54.286,0,105.796,22.132,142.608,60.968    c-3.471,13.114-5.6,26.563-6.317,40.097C361.81,118.741,311.998,91,256,91c-38.953,0-76.522,13.767-106,37.952V91.666z     M130.969,202.717c10.028-7.113,17.023-18.219,18.654-30.986C175.193,139.889,214.634,121,256,121c74.99,0,136,60.561,136,135    s-61.01,135-136,135s-136-60.56-136-135C120,237.461,123.692,219.558,130.969,202.717z M90,467c0,8.271-6.729,15-15,15    s-15-6.729-15-15V211h30V467z M105,181H45c-8.271,0-15-6.729-15-15v-15h90v15C120,174.271,113.271,181,105,181z M422,359.928    C386.091,416.815,322.875,452,256,452c-50.107,0-99.327-20.091-136-55.301v-46.344C150.236,393.048,199.734,421,256,421    c64.364,0,120.404-36.856,147.953-90.311c0.984,0.203,2.003,0.311,3.047,0.311h15V359.928z M482,467c0,8.271-6.729,15-15,15    s-15-6.729-15-15V316c0-8.284-6.716-15-15-15h-15V172.333c0-49.4,22.64-97.112,60-128.226C482,56.077,482,459.203,482,467z" data-original="#000000" class="active-path" data-old_color="#000000" fill="#99C336"/>
	</g>
</g></g> </svg>
