<?xml version="1.0" standalone="no"?>
<!DOCTYPE svg PUBLIC "-//W3C//DTD SVG 1.1//EN" "http://www.w3.org/Graphics/SVG/1.1/DTD/svg11.dtd" >
<svg xmlns="http://www.w3.org/2000/svg">
<metadata>Generated by IcoMoon</metadata>
<defs>
<font id="font-hotjar_5" horiz-adv-x="1024">
<font-face units-per-em="1024" ascent="960" descent="-64" />
<missing-glyph horiz-adv-x="1024" />
<glyph unicode="&#x20;" horiz-adv-x="512" d="" />
<glyph unicode="&#xe800;" glyph-name="down" horiz-adv-x="838" d="M0 629.069q0 25.625 18.45 44.075t45.1 18.45 43.050-18.45l312.625-310.575 311.6 310.575q18.45 18.45 44.075 18.45t44.075-18.45 18.45-44.075-18.45-44.075l-399.75-400.775-400.775 400.775q-18.45 19.475-18.45 44.075z" />
<glyph unicode="&#xe801;" glyph-name="up" horiz-adv-x="837" d="M0 253.918q0 26.65 18.45 44.075l400.775 400.775 399.75-400.775q17.425-17.425 17.425-44.075t-17.425-45.1q-18.45-17.425-45.1-17.425t-44.075 17.425l-310.575 312.625-312.625-312.625q-18.45-17.425-44.075-17.425t-44.075 17.425q-18.45 18.45-18.45 45.1z" />
<glyph unicode="&#xe802;" glyph-name="right" horiz-adv-x="507" d="M0 82.743q0 25.625 18.45 44.075l312.625 311.6-312.625 311.6q-18.45 18.45-18.45 45.1t18.45 44.075 45.1 18.45 44.075-18.45l399.75-400.775-399.75-400.775q-19.475-18.45-44.075-18.45t-45.1 18.45q-18.45 18.45-18.45 45.1z" />
<glyph unicode="&#xe803;" glyph-name="x" horiz-adv-x="703" d="M0 174.993q0 36.9 26.65 63.55l199.875 199.875-199.875 200.9q-26.65 25.625-26.65 62.525t26.65 62.525 62.525 25.625 62.525-25.625l200.9-200.9 199.875 200.9q25.625 25.625 62.525 25.625t62.525-25.625 25.625-62.525-25.625-62.525l-199.875-200.9 199.875-199.875q25.625-26.65 25.625-63.55t-25.625-62.525-62.525-25.625-62.525 25.625l-199.875 199.875-200.9-199.875q-25.625-25.625-62.525-25.625t-62.525 25.625q-26.65 26.65-26.65 62.525z" />
<glyph unicode="&#xe804;" glyph-name="ok" horiz-adv-x="943" d="M0 430.219q0-35.875 24.6-61.5l252.15-244.975q24.6-25.625 61.5-25.625t61.5 25.625l517.625 507.375q25.625 24.6 25.625 60.475t-25.625 59.45q-25.625 25.625-61.5 25.625t-61.5-25.625l-456.125-445.875-189.625 185.525q-25.625 24.6-61.5 24.6t-62.525-24.6q-24.6-24.6-24.6-60.475z" />
<glyph unicode="&#xe805;" glyph-name="left" horiz-adv-x="507" d="M0 444.569l400.775 400.775q18.45 18.45 44.075 18.45 24.6 0 44.075-18.45 18.45-18.45 18.45-45.1t-18.45-44.075l-311.6-311.6 311.6-312.625q18.45-17.425 18.45-44.075t-18.45-44.075q-18.45-18.45-44.075-18.45t-44.075 18.45z" />
<glyph unicode="&#xe806;" glyph-name="hotjar" d="M820.562 596.214c-120.883 226.796-474.767 276.644-474.767 276.644s163.389-189.225-45.466-338.657c-132.024-94.464-184.433-217.078-127.805-351.171 43.305-102.646 134.82-144.374 233.523-159.887-25.139 50.739-31.642 123.924-12.933 199.137 1.935 7.823 4.116 15.442 6.502 22.897 27.761-44.483 73.052-68.956 117.463-57.723 60.733 15.401 96.399 91.443 79.667 169.8-3.809 17.9-10.25 34.079-18.289 48.66 2.417-0.502 4.854-0.799 7.25-1.516 75.756-22.415 112.384-140.339 81.746-263.383-9.892-39.864-25.733-75.284-45.076-104.325 130.109 43.479 216.771 152.422 240.712 249.539 25.006 101.468 5.929 219.044-42.527 309.985z" />
<glyph unicode="&#xe900;" horiz-adv-x="1432" d="M473.3 960h802.392c86.347 0 156.345-69.981 156.345-156.324v-711.351c0-86.336-69.988-156.324-156.345-156.324h-925.173c-86.347 0-156.345 69.981-156.345 156.324v659.59l-194.174 208.086h473.3z" />
<glyph unicode="&#xe901;" horiz-adv-x="1432" d="M660.095 572.453c0-32.73-26.694-59.246-59.638-59.246-32.94 0-59.638 26.517-59.638 59.246 0 32.713 26.698 59.242 59.638 59.242 32.944 0 59.638-26.53 59.638-59.242zM510.196 772.53l233.852-113.574c14.776-7.186 20.947-24.983 13.761-39.759-5.142-10.597-15.739-16.768-26.779-16.768-4.361 0-8.801 0.976-12.979 3.007l-233.839 113.574c-14.789 7.173-20.947 24.983-13.774 39.759s24.983 20.934 39.759 13.761zM1104.206 772.53c14.776 7.173 32.585 1.015 39.759-13.761s1.015-32.585-13.774-39.759l-233.839-113.574c-4.179-2.031-8.618-3.007-12.979-3.007-11.040 0-21.637 6.171-26.779 16.768-7.186 14.776-1.015 32.572 13.761 39.759l233.852 113.574zM1028.196 513.206c-32.944 0-59.643 26.517-59.643 59.246 0 32.713 26.698 59.242 59.643 59.242 32.936 0 59.638-26.53 59.638-59.242 0-32.73-26.703-59.246-59.638-59.246zM809.815 409.698c142.469 0 257.959-62.307 257.959-139.134 0-76.847-115.491-139.144-257.959-139.144-142.458 0-257.949 62.297-257.949 139.144 0 76.827 115.491 139.134 257.949 139.134z" />
<glyph unicode="&#xe902;" horiz-adv-x="1432" d="M350.519 960h925.173c86.347 0 156.345-69.981 156.345-156.324v-711.351c0-86.336-69.988-156.324-156.345-156.324h-925.173c-86.347 0-156.345 69.981-156.345 156.324v659.59l-194.174 208.086h350.519z" />
<glyph unicode="&#xe903;" horiz-adv-x="1432" d="M553.556 513.206c-32.94 0-59.638 26.517-59.638 59.246 0 32.713 26.698 59.242 59.638 59.242 32.944 0 59.638-26.53 59.638-59.242 0-32.73-26.694-59.246-59.638-59.246zM1075.096 513.206c-32.944 0-59.643 26.517-59.643 59.246 0 32.713 26.698 59.242 59.643 59.242 32.936 0 59.638-26.53 59.638-59.242 0-32.73-26.703-59.246-59.638-59.246zM824.942 336.52c116.759-4.077 223.205-45.519 277.827-108.176 10.311-11.804 9.089-29.729-2.74-40.027-11.804-10.311-29.753-9.063-40.028 2.727-43.966 50.431-137.011 85.266-237.041 88.759-113.123 3.95-216.035-31.348-256.118-87.84-5.725-8.088-14.942-12.264-24.163-11.942-5.349 0.187-10.707 1.89-15.4 5.222-12.78 9.070-15.802 26.783-6.72 39.562 51.44 72.522 170.917 116.375 304.381 111.715z" />
<glyph unicode="&#xe904;" horiz-adv-x="1432" d="M350.519 960h925.173c86.347 0 156.345-69.981 156.345-156.324v-711.351c0-86.336-69.988-156.324-156.345-156.324h-925.173c-86.347 0-156.345 69.981-156.345 156.324v659.59l-194.174 208.086h350.519z" />
<glyph unicode="&#xe905;" horiz-adv-x="1432" d="M553.556 513.206c-32.94 0-59.638 26.517-59.638 59.246 0 32.713 26.698 59.242 59.638 59.242 32.944 0 59.638-26.53 59.638-59.242 0-32.73-26.694-59.246-59.638-59.246zM1075.096 513.206c-32.944 0-59.643 26.517-59.643 59.246 0 32.713 26.698 59.242 59.643 59.242 32.936 0 59.638-26.53 59.638-59.242 0-32.73-26.703-59.246-59.638-59.246zM925.958 289.319c18.701 0 33.863-15.163 33.863-33.863 0-18.715-15.163-33.877-33.863-33.877h-222.991c-18.687 0-33.849 15.163-33.849 33.877 0 18.701 15.163 33.863 33.849 33.863h222.991z" />
<glyph unicode="&#xe906;" horiz-adv-x="1432" d="M350.519 960h925.173c86.347 0 156.345-69.981 156.345-156.324v-711.351c0-86.336-69.988-156.324-156.345-156.324h-925.173c-86.347 0-156.345 69.981-156.345 156.324v659.59l-194.174 208.086h350.519z" />
<glyph unicode="&#xe907;" horiz-adv-x="1432" d="M553.556 513.206c-32.94 0-59.638 26.517-59.638 59.246 0 32.713 26.698 59.242 59.638 59.242 32.944 0 59.638-26.53 59.638-59.242 0-32.73-26.694-59.246-59.638-59.246zM1075.096 513.206c-32.944 0-59.643 26.517-59.643 59.246 0 32.713 26.698 59.242 59.643 59.242 32.936 0 59.638-26.53 59.638-59.242 0-32.73-26.703-59.246-59.638-59.246zM598.766 337.783h429.923c-11.372-102.458-103.274-182.321-214.961-182.321s-203.589 79.864-214.961 182.321z" />
<glyph unicode="&#xe908;" horiz-adv-x="1432" d="M350.519 960h925.173c86.347 0 156.345-69.981 156.345-156.324v-711.351c0-86.336-69.988-156.324-156.345-156.324h-925.173c-86.347 0-156.345 69.981-156.345 156.324v659.59l-194.174 208.086h350.519z" />
<glyph unicode="&#xe909;" horiz-adv-x="1432" d="M934.116 572.066l-18.153 35.408c-20.489 39.805-4.886 88.83 34.81 109.484s88.415 5.12 108.864-34.708l11.284-21.948 20.747 13.365c37.623 24.268 87.614 13.353 111.664-24.382s13.019-87.985-24.596-112.221l-170.262-109.816-74.359 144.818zM621.362 428.814l-170.272 109.813c-37.617 24.236-48.648 74.485-24.595 112.222s74.016 48.644 111.673 24.385l20.748-13.365 11.254 21.94c20.451 39.829 69.205 55.373 108.904 34.719 39.667-20.663 55.27-69.687 34.811-109.484l-18.218-35.425-74.304-144.803zM589.386 328.403c63.86-26.173 141.736-41.601 225.901-41.601 84.182 0 162.058 15.428 225.91 41.601-26.874-99.611-117.811-172.93-225.91-172.93s-199.027 73.319-225.901 172.93z" />
<glyph unicode="&#xe90a;" horiz-adv-x="1432" d="M350.519 960h925.173c86.347 0 156.345-69.981 156.345-156.324v-711.351c0-86.336-69.988-156.324-156.345-156.324h-925.173c-86.347 0-156.345 69.981-156.345 156.324v659.59l-194.174 208.086h350.519z" />
<glyph unicode="&#xe90b;" horiz-adv-x="1432" d="M553.556 513.206c-32.94 0-59.638 26.517-59.638 59.246 0 32.713 26.698 59.242 59.638 59.242 32.944 0 59.638-26.53 59.638-59.242 0-32.73-26.694-59.246-59.638-59.246zM1142.017 542.58c10.129-3.624 15.409-14.722 11.793-24.795-3.208-8.905-12.284-14.023-21.349-12.587-1.189 0.188-2.382 0.478-3.554 0.896l-124.457 44.437c-7.612 2.721-12.758 9.848-12.916 17.893-0.156 8.054 4.697 15.356 12.218 18.346l123.969 49.36c9.982 3.974 21.321-0.862 25.333-10.79 4.020-9.949-0.832-21.22-10.814-25.194l-76.334-30.391 76.112-27.175zM598.766 337.783h429.923c-11.372-102.458-103.274-182.321-214.961-182.321s-203.589 79.864-214.961 182.321z" />
<glyph unicode="&#xe90c;" glyph-name="icon-error" horiz-adv-x="316" d="M284.020 743.366l-89.52-459.038h-78.75l-89.52 452.98c-0.896 4.038-1.796 8.974-2.692 14.808-4.936 26.924-7.404 44.2-7.404 51.826 0 35.448 12.676 64.054 38.030 85.816s58.67 32.644 99.952 32.644c41.282 0 74.598-10.994 99.952-32.982s38.028-50.48 38.028-85.48c0-6.282-0.674-14.582-2.020-24.904s-3.366-22.21-6.058-35.674v0zM152.77 229.134c36.346 0 67.532-12.9 93.558-38.702s39.038-57.1 39.038-93.894c0-35.448-13.012-65.85-39.038-91.202s-57.212-38.028-93.558-38.028c-35.448 0-65.85 12.564-91.202 37.692s-38.030 55.64-38.030 91.538c0 37.244 12.564 68.654 37.692 94.23s55.642 38.366 91.538 38.366v0z" />
<glyph unicode="&#xe91a;" glyph-name="select-element" d="M510.976 454.144l205.824-516.096 99.328 210.944 196.608 99.328-501.76 205.824zM665.6 369.152c-14.336 14.336-14.336 14.336-27.648 0l-41.984-41.984c-28.672-13.312-28.672-13.312 0-41.984l335.872-333.824c21.504-21.504 20.48-18.432 38.912 0l39.936 39.936c19.456 19.456 21.504 18.432 0 38.912l-345.088 338.944zM899.072 960h-38.912c-38.912 0-38.912 0-38.912-38.912v-38.912c0-38.912 0-38.912 38.912-38.912h38.912c38.912 0 38.912 0 38.912 38.912v38.912c0 38.912 0 38.912-38.912 38.912zM693.248 960h-38.912c-38.912 0-38.912 0-38.912-38.912v-38.912c0-38.912 0-38.912 38.912-38.912h38.912c38.912 0 38.912 0 38.912 38.912v38.912c1.024 38.912 1.024 38.912-38.912 38.912zM899.072 754.176h-38.912c-38.912 0-38.912 0-38.912-38.912v-38.912c0-38.912 0-38.912 38.912-38.912h38.912c38.912 0 38.912 0 38.912 38.912v38.912c0 38.912 0 38.912-38.912 38.912zM487.424 960h-38.912c-38.912 0-38.912 0-38.912-38.912v-38.912c0-38.912 0-38.912 38.912-38.912h38.912c38.912 0 38.912 0 38.912 38.912v38.912c0 38.912 0 38.912-38.912 38.912zM899.072 548.352h-38.912c-38.912 0-38.912 0-38.912-38.912v-38.912c0-38.912 0-38.912 38.912-38.912h38.912c38.912 0 38.912 0 38.912 38.912v38.912c0 38.912 0 38.912-38.912 38.912zM281.6 960h-38.912c-38.912 0-38.912 0-38.912-38.912v-38.912c0-38.912 0-38.912 38.912-38.912h38.912c38.912 0 38.912 0 38.912 38.912v38.912c0 38.912 0 38.912-38.912 38.912zM75.776 960h-38.912c-38.912 0-38.912 0-38.912-38.912v-38.912c0-38.912 0-38.912 38.912-38.912h38.912c38.912 0 38.912 0 38.912 38.912v38.912c0 38.912 0 38.912-38.912 38.912zM75.776 754.176h-38.912c-38.912 0-38.912 0-38.912-38.912v-38.912c0-38.912 0-38.912 38.912-38.912h38.912c38.912 0 38.912 0 38.912 38.912v38.912c0 38.912 0 38.912-38.912 38.912zM487.424 135.68h-38.912c-38.912 0-38.912 0-38.912-38.912v-38.912c0-38.912 0-38.912 38.912-38.912h38.912c38.912 0 38.912 0 38.912 38.912v38.912c0 38.912 0 38.912-38.912 38.912zM75.776 548.352h-38.912c-38.912 0-38.912 0-38.912-38.912v-38.912c0-38.912 0-38.912 38.912-38.912h38.912c38.912 0 38.912 0 38.912 38.912v38.912c0 38.912 0 38.912-38.912 38.912zM281.6 135.68h-38.912c-38.912 0-38.912 0-38.912-38.912v-38.912c0-38.912 0-38.912 38.912-38.912h38.912c38.912 0 38.912 0 38.912 38.912v38.912c0 38.912 0 38.912-38.912 38.912zM75.776 342.528h-38.912c-38.912 0-38.912 0-38.912-39.936v-38.912c0-38.912 0-38.912 38.912-38.912h38.912c38.912 0 38.912 0 38.912 38.912v38.912c0 39.936 0 39.936-38.912 39.936zM75.776 135.68h-38.912c-38.912 0-38.912 0-38.912-38.912v-38.912c0-38.912 0-38.912 38.912-38.912h38.912c38.912 0 38.912 0 38.912 38.912v38.912c0 38.912 0 38.912-38.912 38.912z" />
<glyph unicode="&#xe91b;" glyph-name="angry_smiley" d="M512-39.619c-269.305 0-487.619 218.314-487.619 487.619s218.314 487.619 487.619 487.619c269.305 0 487.619-218.314 487.619-487.619s-218.314-487.619-487.619-487.619zM512 9.143c242.374 0 438.857 196.483 438.857 438.857s-196.483 438.857-438.857 438.857c-242.374 0-438.857-196.483-438.857-438.857s196.483-438.857 438.857-438.857zM292.571 170.057c0 135.729 73.143 203.993 219.429 204.793s219.429-67.464 219.429-204.793h-438.857zM292.571 521.143c-26.93 0-48.762 21.831-48.762 48.762s21.831 48.762 48.762 48.762c26.93 0 48.762-21.831 48.762-48.762s-21.831-48.762-48.762-48.762zM731.429 521.143c-26.93 0-48.762 21.831-48.762 48.762s21.831 48.762 48.762 48.762c26.93 0 48.762-21.831 48.762-48.762s-21.831-48.762-48.762-48.762z" />
<glyph unicode="&#xe91c;" glyph-name="happy_smiley" d="M512-39.619c-269.305 0-487.619 218.314-487.619 487.619s218.314 487.619 487.619 487.619c269.305 0 487.619-218.314 487.619-487.619s-218.314-487.619-487.619-487.619zM512 9.143c242.374 0 438.857 196.483 438.857 438.857s-196.483 438.857-438.857 438.857c-242.374 0-438.857-196.483-438.857-438.857s196.483-438.857 438.857-438.857zM292.571 521.143c-26.93 0-48.762 21.831-48.762 48.762s21.831 48.762 48.762 48.762c26.93 0 48.762-21.831 48.762-48.762s-21.831-48.762-48.762-48.762zM731.429 521.143c-26.93 0-48.762 21.831-48.762 48.762s21.831 48.762 48.762 48.762c26.93 0 48.762-21.831 48.762-48.762s-21.831-48.762-48.762-48.762zM501.051 197.729c-105.354 3.679-201.509 37.982-250.97 89.541-9.337 9.714-8.285 24.415 2.357 32.83 10.62 8.425 26.818 7.35 36.121-2.352 39.811-41.498 123.857-70.343 214.116-73.495 102.073-3.564 194.821 25.1 230.822 71.33 5.142 6.619 13.445 10.019 21.766 9.728 4.826-0.169 9.666-1.581 13.909-4.328 11.556-7.477 14.334-22.017 6.176-32.476-46.203-59.349-153.871-94.984-274.298-90.779z" />
<glyph unicode="&#xe91d;" glyph-name="love_smiley" d="M512-39.619c-269.305 0-487.619 218.314-487.619 487.619s218.314 487.619 487.619 487.619c269.305 0 487.619-218.314 487.619-487.619s-218.314-487.619-487.619-487.619zM512 9.143c242.374 0 438.857 196.483 438.857 438.857s-196.483 438.857-438.857 438.857c-242.374 0-438.857-196.483-438.857-438.857s196.483-438.857 438.857-438.857zM292.571 374.857h438.857c0-137.329-73.143-205.593-219.429-204.793s-219.429 69.064-219.429 204.793zM292.571 521.143c-26.93 0-48.762 21.831-48.762 48.762s21.831 48.762 48.762 48.762c26.93 0 48.762-21.831 48.762-48.762s-21.831-48.762-48.762-48.762zM731.429 521.143c-26.93 0-48.762 21.831-48.762 48.762s21.831 48.762 48.762 48.762c26.93 0 48.762-21.831 48.762-48.762s-21.831-48.762-48.762-48.762z" />
<glyph unicode="&#xe91e;" glyph-name="neutral_smiley" d="M512-39.619c-269.305 0-487.619 218.314-487.619 487.619s218.314 487.619 487.619 487.619c269.305 0 487.619-218.314 487.619-487.619s-218.314-487.619-487.619-487.619zM512 9.143c242.374 0 438.857 196.483 438.857 438.857s-196.483 438.857-438.857 438.857c-242.374 0-438.857-196.483-438.857-438.857s196.483-438.857 438.857-438.857zM292.571 521.143c-26.93 0-48.762 21.831-48.762 48.762s21.831 48.762 48.762 48.762c26.93 0 48.762-21.831 48.762-48.762s-21.831-48.762-48.762-48.762zM731.429 521.143c-26.93 0-48.762 21.831-48.762 48.762s21.831 48.762 48.762 48.762c26.93 0 48.762-21.831 48.762-48.762s-21.831-48.762-48.762-48.762zM316.952 301.714h390.095c13.465 0 24.381-10.916 24.381-24.381s-10.916-24.381-24.381-24.381h-390.095c-13.465 0-24.381 10.916-24.381 24.381s10.916 24.381 24.381 24.381z" />
<glyph unicode="&#xe91f;" glyph-name="sad_smiley" d="M512-39.619c-269.305 0-487.619 218.314-487.619 487.619s218.314 487.619 487.619 487.619c269.305 0 487.619-218.314 487.619-487.619s-218.314-487.619-487.619-487.619zM512 9.143c242.374 0 438.857 196.483 438.857 438.857s-196.483 438.857-438.857 438.857c-242.374 0-438.857-196.483-438.857-438.857s196.483-438.857 438.857-438.857zM292.571 521.143c-26.93 0-48.762 21.831-48.762 48.762s21.831 48.762 48.762 48.762c26.93 0 48.762-21.831 48.762-48.762s-21.831-48.762-48.762-48.762zM731.429 521.143c-26.93 0-48.762 21.831-48.762 48.762s21.831 48.762 48.762 48.762c26.93 0 48.762-21.831 48.762-48.762s-21.831-48.762-48.762-48.762zM522.949 325.795c105.354-3.679 201.509-37.982 250.97-89.541 9.337-9.714 8.285-24.415-2.357-32.83-10.62-8.425-26.818-7.35-36.121 2.352-39.811 41.498-123.857 70.343-214.116 73.495-102.073 3.564-194.821-25.1-230.822-71.33-5.142-6.619-13.445-10.019-21.766-9.728-4.826 0.169-9.666 1.581-13.909 4.328-11.556 7.477-14.334 22.017-6.176 32.476 46.203 59.349 153.871 94.984 274.298 90.779z" />
</font>
</defs>
</svg>
