<?xml version="1.0" encoding="UTF-8" standalone="no"?>
<svg
   xmlns:dc="http://purl.org/dc/elements/1.1/"
   xmlns:cc="http://creativecommons.org/ns#"
   xmlns:rdf="http://www.w3.org/1999/02/22-rdf-syntax-ns#"
   xmlns:svg="http://www.w3.org/2000/svg"
   xmlns="http://www.w3.org/2000/svg"
   xmlns:sodipodi="http://sodipodi.sourceforge.net/DTD/sodipodi-0.dtd"
   xmlns:inkscape="http://www.inkscape.org/namespaces/inkscape"
   height="20.045"
   version="1.2"
   viewBox="0 0 20.054998 20.045"
   width="20.054998"
   xml:space="preserve"
   id="svg5"
   sodipodi:docname="icon-phone.svg"
   inkscape:version="0.92.4 (5da689c313, 2019-01-14)"><metadata
     id="metadata11"><rdf:RDF><cc:Work
         rdf:about=""><dc:format>image/svg+xml</dc:format><dc:type
           rdf:resource="http://purl.org/dc/dcmitype/StillImage" /><dc:title /></cc:Work></rdf:RDF></metadata><defs
     id="defs9" /><sodipodi:namedview
     pagecolor="#ffffff"
     bordercolor="#666666"
     borderopacity="1"
     objecttolerance="10"
     gridtolerance="10"
     guidetolerance="10"
     inkscape:pageopacity="0"
     inkscape:pageshadow="2"
     inkscape:window-width="1920"
     inkscape:window-height="1017"
     id="namedview7"
     showgrid="false"
     inkscape:zoom="27.812867"
     inkscape:cx="8.5824984"
     inkscape:cy="8.329773"
     inkscape:window-x="-8"
     inkscape:window-y="-8"
     inkscape:window-maximized="1"
     inkscape:current-layer="svg5"
     fit-margin-top="0"
     fit-margin-left="0"
     fit-margin-right="0"
     fit-margin-bottom="0" /><g
     id="Layer_1"
     transform="matrix(-1,0,0,1,21.056499,-1)"><path
       d="M 19.502,3.672 17.707,1.879 C 17.141,1.312 16.387,1 15.586,1 14.785,1 14.031,1.312 13.465,1.879 l -1.586,1.586 c -1.17,1.17 -1.17,3.072 0,4.242 L 13.258,9.086 9.086,13.258 7.707,11.879 C 7.141,11.312 6.387,11 5.586,11 4.785,11 4.031,11.312 3.465,11.879 l -1.586,1.586 c -1.17,1.17 -1.17,3.072 0,4.242 L 3.673,19.5 c 0.465,0.465 1.796,1.545 4.116,1.545 2.764,0 5.694,-1.529 8.711,-4.545 6.245,-6.246 4.825,-11.002 3.002,-12.828 z M 13.293,4.879 14.879,3.293 C 15.074,3.098 15.33,3 15.586,3 c 0.256,0 0.512,0.098 0.707,0.293 l 1.083,1.082 -3.001,3 -1.082,-1.082 c -0.391,-0.391 -0.391,-1.023 0,-1.414 z m -10,11.414 c -0.391,-0.391 -0.391,-1.023 0,-1.414 L 4.879,13.293 C 5.074,13.098 5.33,13 5.586,13 c 0.256,0 0.512,0.098 0.707,0.293 l 1.082,1.082 -2.999,3 z m 11.793,-1.207 c -3.083,3.082 -5.551,3.959 -7.297,3.959 -1.349,0 -2.267,-0.523 -2.702,-0.959 -0.004,-0.004 2.995,-3.004 2.995,-3.004 l 0.297,0.297 c 0.195,0.195 0.451,0.293 0.707,0.293 0.256,0 0.512,-0.098 0.707,-0.293 l 5.586,-5.586 c 0.391,-0.391 0.391,-1.023 0,-1.414 l -0.297,-0.297 3.001,-3 c 1.003,1.004 2.467,4.539 -2.997,10.004 z"
       id="path2"
       style="fill:#824a3b;fill-opacity:1"
       inkscape:connector-curvature="0" /></g></svg>