<svg id="Vrstva_1" data-name="Vrstva 1" xmlns="http://www.w3.org/2000/svg" viewBox="0 0 778.96 506.26"><defs><style>.cls-1{fill:#99c336;}</style></defs><title>listky</title><path class="cls-1" d="M876.72,351.05c-11.94-55.32-.11-112.08,0-112.64a21.74,21.74,0,0,0-20-26.24c-10.53-.6-259.23-12.58-343,122.13C442.53,448.78,510,553.85,533.87,584.63a563,563,0,0,0-17.34,75.64,373.45,373.45,0,0,0-57.95-71.51c1.54-12.73,5.1-61.33-21.69-111.66C390.21,389.41,308.71,388.22,251.42,395c-74.69,8.78-136.77,53.1-139.38,55a21.68,21.68,0,0,0-8,24.2c1.65,5.19,41.42,127.38,119.06,168.89a174.26,174.26,0,0,0,83,20.85c41.87,0,71.94-14.5,73.9-15.47a21.71,21.71,0,0,0-19.16-39c-2.32,1.11-57.74,27.16-117.28-4.7C195.72,579.13,163.48,508,151.1,476.42c20.23-12.1,60.65-33.05,105.4-38.32,72.87-8.6,115.32,9.21,142,59.42A152.13,152.13,0,0,1,415.27,553c-75.55-53.44-148.68-63.87-153.57-64.51a21.71,21.71,0,0,0-5.64,43.06c1.66.22,164.16,23.41,242.55,186.34h54.83c18-271.67,204-360.92,212.78-364.95a21.71,21.71,0,0,0-18-39.5C745.43,314.7,680,345,618,422.43c-22.57,28.18-46.21,65.45-65.82,112-21.54-35.47-47.85-102.85-1.62-177.21,56.68-91.16,218.3-101.49,279.7-102-2.82,25-4.72,64.78,4,105,12.5,57.79-3.8,115.77-25.5,147.58-30.68,45-96,69.43-188.78,70.7a21.72,21.72,0,0,0,.29,43.43h.3c109.13-1.5,184.51-31.67,224.07-89.66C877.53,484.08,890.12,412.94,876.72,351.05Z" transform="translate(-103.04 -211.65)"/></svg>